<?xml version="1.0" encoding="utf-8"?>
<!-- Generator: Adobe Illustrator 19.0.0, SVG Export Plug-In . SVG Version: 6.00 Build 0)  -->
<svg version="1.1" id="Layer_1" xmlns="http://www.w3.org/2000/svg" xmlns:xlink="http://www.w3.org/1999/xlink" x="0px" y="0px"
	 viewBox="0 0 600 400" style="enable-background:new 0 0 600 400;" xml:space="preserve">
<style type="text/css">
	.st0{fill:#E1E99E;}
	.st1{opacity:0.15;}
	.st2{fill:#20140F;}
	.st3{fill:#8E6338;}
	.st4{fill:#3B2E23;}
	.st5{fill:#549B44;}
	.st6{opacity:0.3;}
	.st7{fill:#FFFFFF;}
	.st8{opacity:0.2;}
	.st9{fill:#6CBE45;}
	.st10{fill:#F8F7EC;}
</style>
<g>
	<g>
		<circle class="st0" cx="301" cy="184.9" r="127.8"/>
	</g>
	<g>
		<g class="st1">
			<ellipse class="st2" cx="283.1" cy="331.2" rx="105.3" ry="12"/>
		</g>
		<g>
			<g>
				<g>
					<path class="st3" d="M273.3,145.5c0,0-9.6-19,3.2-39.3c0,0,10.3-5.7,19.7,2.9c0,0-14.3,17.5-12.9,36.4l1.4,18.1l-13.8,0.6
						L273.3,145.5z"/>
					<path class="st4" d="M270.9,166.5c-0.7,0-1.3-0.3-1.7-0.8c-0.5-0.5-0.7-1.2-0.6-1.9l2.3-18c-1.7-3.8-8.5-21.7,3.7-41
						c0.2-0.3,0.5-0.6,0.9-0.8c4.1-2.2,14-4.4,22.4,3.3c0.9,0.8,1,2.3,0.2,3.2c-0.1,0.2-13.6,17-12.4,34.7l1.4,18.1
						c0,0.6-0.2,1.3-0.6,1.8c-0.4,0.5-1,0.8-1.7,0.8l-13.8,0.6C271,166.5,270.9,166.5,270.9,166.5z M278.2,108
						c-11.4,18.8-2.8,36.3-2.8,36.4c0.2,0.4,0.3,0.9,0.2,1.4l-2.1,15.9l8.6-0.4l-1.2-15.6c-1.2-16.2,8.3-31,12-36.2
						C286.5,104.9,280.1,107.1,278.2,108z"/>
				</g>
				<g>
					<g>
						<path class="st5" d="M337.9,226.6c-6.6-10.5-10.6-22.4-11.1-34.9c0-0.2,0-0.5,0-0.7c-1.3-23.7-20-43.2-43.5-45.6
							c-0.1,2.7-2.3,4.8-5,4.8c-2.7,0-4.9-2.1-5-4.8c-24.5,2.5-43.6,23.2-43.6,48.3c0,0.5,0,1,0,1.5c0.3,10.1-3.1,20-8.9,28.2
							c-9,12.6-13.9,28.3-12.9,45.1c2.1,35.7,31.3,64.4,67,66.1c40.4,1.9,73.8-30.4,73.8-70.4C348.8,250.4,344.8,237.5,337.9,226.6z
							"/>
						<path class="st4" d="M278.4,337.1c-1.2,0-2.3,0-3.5-0.1c-17.9-0.8-34.8-8.3-47.7-20.9c-12.9-12.7-20.6-29.5-21.6-47.4
							c-1-16.9,3.6-33,13.3-46.6c5.8-8.2,8.8-17.5,8.5-26.8c0-0.5,0-1,0-1.6c0-26.2,19.6-48,45.7-50.7c0.6-0.1,1.3,0.1,1.8,0.6
							c0.5,0.4,0.8,1,0.8,1.7c0.1,1.4,1.2,2.5,2.6,2.5c1.4,0,2.6-1.1,2.6-2.5c0-0.6,0.3-1.3,0.8-1.7c0.5-0.4,1.1-0.6,1.8-0.6
							c24.7,2.5,44.3,23.1,45.6,47.8l0,0.7c0.5,11.7,4.2,23.4,10.7,33.7l0,0c7.4,11.6,11.3,25.1,11.3,38.9c0,20.1-8,38.8-22.5,52.7
							C315,330,297.2,337.1,278.4,337.1z M271.5,148.1c-22.6,3.3-39.4,22.6-39.4,45.7c0,0.5,0,0.9,0,1.4c0.3,10.3-2.9,20.6-9.4,29.7
							c-9.1,12.8-13.4,27.9-12.4,43.6c2.1,34.2,30.5,62.3,64.8,63.8c18.8,0.9,36.7-5.8,50.3-18.8c13.6-13,21.1-30.5,21.1-49.3
							c0-12.9-3.6-25.5-10.5-36.4c-7-11-10.9-23.5-11.4-36l0-0.7c-1.2-21.8-17.9-40-39.3-43.1c-1.1,2.7-3.8,4.5-6.8,4.5
							C275.3,152.6,272.7,150.7,271.5,148.1z"/>
					</g>
				</g>
			</g>
			<g class="st6">
				
					<ellipse transform="matrix(-0.8443 -0.5359 0.5359 -0.8443 371.8639 452.4712)" class="st7" cx="251.7" cy="172.2" rx="7.8" ry="13"/>
			</g>
			<g class="st8">
				<g>
					<path class="st4" d="M337.9,226.6c-1.5-2.3-2.8-4.7-4-7.1l0,0c0,0,19.9,88.7-63.3,113.5l-0.6,1.2c1.6,0.2,3.3,0.3,5,0.4
						c40.4,1.9,73.8-30.4,73.8-70.4C348.8,250.4,344.8,237.5,337.9,226.6z"/>
				</g>
			</g>
			<g>
				<g>
					<g>
						<path class="st5" d="M251.4,120.9c11.8,11.8,19.4,11.2,24.5,6.1l-42.7-42.7C233.2,84.3,239.6,109.1,251.4,120.9z"/>
						<path class="st4" d="M268.2,132.8c-4.8,0-10.9-2.6-18.5-10.2c-12.1-12.1-18.5-36.7-18.8-37.7c-0.3-1,0.2-2.1,1.1-2.6
							c0.9-0.5,2.1-0.4,2.9,0.4l42.7,42.7c0.4,0.4,0.7,1,0.7,1.7c0,0.6-0.3,1.2-0.7,1.7C275.3,131,272.2,132.8,268.2,132.8z
							 M238.4,92.8c2.9,8.1,7.9,19.7,14.7,26.4c10.6,10.6,16.4,9.5,19.4,7.6L238.4,92.8z"/>
					</g>
					<g>
						<path class="st9" d="M269.9,102.5c-11.8-11.8-36.7-18.2-36.7-18.2l42.7,42.7C281,121.9,281.7,114.3,269.9,102.5z"/>
						<path class="st4" d="M275.9,129.4c-0.6,0-1.2-0.3-1.7-0.7L231.5,86c-0.8-0.8-0.9-1.9-0.4-2.9c0.5-0.9,1.6-1.4,2.6-1.1
							c1,0.3,25.6,6.7,37.7,18.8l0,0c14,14,11,22.9,6.1,27.9C277.2,129.1,276.6,129.4,275.9,129.4z M241.7,89.5l34,34
							c1.9-2.9,3-8.7-7.6-19.4C261.4,97.4,249.8,92.4,241.7,89.5z"/>
					</g>
				</g>
				<g>
					<path class="st4" d="M275.9,129.4c-0.6,0-1.2-0.2-1.7-0.7l-33-33c-0.9-0.9-0.9-2.4,0-3.4c0.9-0.9,2.4-0.9,3.4,0l33,33
						c0.9,0.9,0.9,2.4,0,3.4C277.1,129.1,276.5,129.4,275.9,129.4z"/>
				</g>
				<g>
					<path class="st4" d="M252.7,106.1c-1.3,0-2.4-1.1-2.4-2.4v-4.5c0-1.3,1.1-2.4,2.4-2.4c1.3,0,2.4,1.1,2.4,2.4v4.5
						C255.1,105.1,254,106.1,252.7,106.1z"/>
				</g>
				<g>
					<path class="st4" d="M259.4,112.9h-9.7c-1.3,0-2.4-1.1-2.4-2.4s1.1-2.4,2.4-2.4h9.7c1.3,0,2.4,1.1,2.4,2.4
						S260.7,112.9,259.4,112.9z"/>
				</g>
				<g>
					<path class="st4" d="M266.5,120c-1.3,0-2.4-1.1-2.4-2.4v-11.5c0-1.3,1.1-2.4,2.4-2.4c1.3,0,2.4,1.1,2.4,2.4v11.5
						C268.9,118.9,267.8,120,266.5,120z"/>
				</g>
				<g>
					<path class="st4" d="M273,126.4h-8.1c-1.3,0-2.4-1.1-2.4-2.4s1.1-2.4,2.4-2.4h8.1c1.3,0,2.4,1.1,2.4,2.4S274.3,126.4,273,126.4
						z"/>
				</g>
			</g>
		</g>
	</g>
</g>
<g>
	<path class="st10" d="M437.8,82.5h-154c-2.3,0-4.1-1.9-4.1-4.1l0,0c0-2.3,1.9-4.1,4.1-4.1h154c2.3,0,4.1,1.9,4.1,4.1l0,0
		C441.9,80.7,440.1,82.5,437.8,82.5z"/>
</g>
<g>
	<path class="st10" d="M505.7,99.3h-154c-2.3,0-4.1-1.9-4.1-4.1l0,0c0-2.3,1.9-4.1,4.1-4.1h154c2.3,0,4.1,1.9,4.1,4.1l0,0
		C509.9,97.4,508,99.3,505.7,99.3z"/>
</g>
<g>
	<path class="st10" d="M189.8,189h-154c-2.3,0-4.1-1.9-4.1-4.1l0,0c0-2.3,1.9-4.1,4.1-4.1h154c2.3,0,4.1,1.9,4.1,4.1l0,0
		C193.9,187.2,192.1,189,189.8,189z"/>
</g>
<g>
	<path class="st10" d="M479.7,145.5h-154c-2.3,0-4.1-1.9-4.1-4.1l0,0c0-2.3,1.9-4.1,4.1-4.1h154c2.3,0,4.1,1.9,4.1,4.1l0,0
		C483.8,143.6,481.9,145.5,479.7,145.5z"/>
</g>
<g>
	<path class="st10" d="M565,171.6h-154c-2.3,0-4.1-1.9-4.1-4.1l0,0c0-2.3,1.9-4.1,4.1-4.1h154c2.3,0,4.1,1.9,4.1,4.1l0,0
		C569.1,169.7,567.2,171.6,565,171.6z"/>
</g>
<g>
	<path class="st10" d="M505.7,227.1h-154c-2.3,0-4.1-1.9-4.1-4.1l0,0c0-2.3,1.9-4.1,4.1-4.1h154c2.3,0,4.1,1.9,4.1,4.1l0,0
		C509.9,225.3,508,227.1,505.7,227.1z"/>
</g>
<g>
	<path class="st10" d="M524.7,285.1h-154c-2.3,0-4.1-1.9-4.1-4.1l0,0c0-2.3,1.9-4.1,4.1-4.1h154c2.3,0,4.1,1.9,4.1,4.1l0,0
		C528.8,283.3,527,285.1,524.7,285.1z"/>
</g>
<g>
	<path class="st10" d="M252.2,145.5h-154c-2.3,0-4.1-1.9-4.1-4.1l0,0c0-2.3,1.9-4.1,4.1-4.1h154c2.3,0,4.1,1.9,4.1,4.1l0,0
		C256.3,143.6,254.4,145.5,252.2,145.5z"/>
</g>
<g id="XMLID_1_">
</g>
<g id="XMLID_2_">
</g>
<g id="XMLID_3_">
</g>
<g id="XMLID_4_">
</g>
<g id="XMLID_5_">
</g>
<g id="XMLID_6_">
</g>
</svg>
