<?xml version="1.0" encoding="utf-8"?>
<!-- Generator: Adobe Illustrator 19.0.0, SVG Export Plug-In . SVG Version: 6.00 Build 0)  -->
<svg version="1.1" id="Layer_1" xmlns="http://www.w3.org/2000/svg" xmlns:xlink="http://www.w3.org/1999/xlink" x="0px" y="0px"
	 viewBox="0 0 600 400" style="enable-background:new 0 0 600 400;" xml:space="preserve">
<style type="text/css">
	.st0{fill:#E1E99E;}
	.st1{opacity:0.15;}
	.st2{fill:#20140F;}
	.st3{fill:#8E6338;}
	.st4{fill:#3B2E23;}
	.st5{fill:#966A43;}
	.st6{fill:#6CBE45;}
	.st7{fill:#B2D890;}
	.st8{fill:#FBE45D;}
	.st9{fill:#549B44;}
	.st10{opacity:0.2;}
	.st11{opacity:0.3;}
	.st12{fill:#FFFFFF;}
	.st13{fill:#F8F7EC;}
</style>
<g id="XMLID_55_">
	<g id="XMLID_94_">
		<circle id="XMLID_31_" class="st0" cx="293.7" cy="172.2" r="81.8"/>
	</g>
	<g id="XMLID_56_">
		<g id="XMLID_92_" class="st1">
			<ellipse id="XMLID_30_" class="st2" cx="274.4" cy="264.2" rx="117.9" ry="10.2"/>
		</g>
		<g id="XMLID_57_">
			<g id="XMLID_87_">
				<circle id="XMLID_29_" class="st3" cx="242" cy="212.9" r="27.2"/>
				<path id="XMLID_88_" class="st4" d="M242,242.1c-16.1,0-29.3-13.1-29.3-29.3s13.1-29.3,29.3-29.3c16.1,0,29.3,13.1,29.3,29.3
					S258.1,242.1,242,242.1z M242,187.6c-13.9,0-25.2,11.3-25.2,25.2c0,13.9,11.3,25.2,25.2,25.2c13.9,0,25.2-11.3,25.2-25.2
					C267.2,198.9,255.9,187.6,242,187.6z"/>
			</g>
			<g id="XMLID_85_">
				<circle id="XMLID_26_" class="st5" cx="242" cy="212.9" r="20.6"/>
			</g>
			<g id="XMLID_75_">
				<g id="XMLID_80_">
					<path id="XMLID_25_" class="st6" d="M335.6,204.1h-2.3c0,0.8,0,1.6-0.1,2.4c-1.2,16.8-14.6,30.5-31.3,32c-0.1,0-0.3,0-0.4,0
						c-12.6,1-24.9,4.7-35.8,11.3c-8,4.8-17.3,7.5-27.3,7.5c-29.4,0-53.2-23.8-53.2-53.2h-6.8c0,33.2,26.9,60,60,60
						c11.8,0,22.8-3.4,32.1-9.3c8.9-5.7,19.1-9,29.7-9.4c0.2,0,0.4,0,0.6,0c20.2-1.1,36.8-17,38.9-37
						C337.4,208.3,335.6,206.4,335.6,204.1z"/>
					<path id="XMLID_81_" class="st4" d="M238.5,266.2c-34.2,0-62.1-27.8-62.1-62.1c0-0.5,0.2-1,0.6-1.4c0.4-0.4,0.9-0.6,1.4-0.6
						h6.8c1.1,0,2,0.9,2,2c0,28.2,23,51.2,51.2,51.2c9.3,0,18.3-2.5,26.2-7.2c10.9-6.5,23.6-10.5,36.6-11.5l0.4,0
						c15.7-1.4,28.4-14.3,29.5-30.1c0-0.7,0.1-1.4,0.1-2.3c0-1.1,0.9-2,2-2h2.3c1.1,0,2,0.9,2,2c0,1.2,0.9,2.2,2.2,2.3
						c0.6,0,1.1,0.3,1.4,0.7c0.4,0.4,0.5,1,0.5,1.5c-2.1,21-19.7,37.7-40.8,38.9c-0.2,0-0.4,0-0.6,0c-10,0.4-19.9,3.6-28.7,9.1
						C261.7,262.9,250.3,266.2,238.5,266.2z M180.5,206.1c1.1,31.1,26.7,56,58,56c11,0,21.7-3.1,31-9c9.4-5.9,20-9.3,30.7-9.7
						c0.2,0,0.4,0,0.6,0c18.5-1,34-15.3,36.7-33.5c-0.9-0.4-1.7-1-2.3-1.7c-1.9,17-15.8,30.8-33,32.3l-0.5,0
						c-12.4,1-24.5,4.8-34.9,11c-8.5,5.1-18.3,7.8-28.3,7.8c-29.8,0-54.1-23.7-55.2-53.2H180.5z"/>
				</g>
				<g id="XMLID_78_">
					<path id="XMLID_22_" class="st7" d="M320.7,205.5c-0.7,11.2-10,20.2-21.2,20.5c-0.9,0-1.7,0-2.6-0.1
						c-12.5-1-24.8,3.3-34.9,10.6c-6.6,4.8-14.7,7.6-23.5,7.6c-22.2,0-40.1-18-40.1-40.1h-13.1c0,29.4,23.8,53.2,53.2,53.2
						c10,0,19.3-2.7,27.3-7.5c10.9-6.5,23.1-10.3,35.8-11.3c0.1,0,0.3,0,0.4,0c16.8-1.5,30.2-15.2,31.3-32c0.1-0.8,0.1-1.6,0.1-2.4
						h-12.6C320.7,204.6,320.7,205,320.7,205.5z"/>
				</g>
				<g id="XMLID_76_">
					<path id="XMLID_21_" class="st8" d="M238.5,244.2c8.8,0,16.9-2.8,23.5-7.6c10.2-7.4,22.4-11.7,34.9-10.6
						c0.8,0.1,1.7,0.1,2.6,0.1c11.2-0.4,20.5-9.3,21.2-20.5c0-0.5,0-0.9,0-1.4H198.4C198.4,226.3,216.3,244.2,238.5,244.2z"/>
				</g>
			</g>
			<g id="XMLID_69_">
				<g id="XMLID_70_">
					<path id="XMLID_20_" class="st9" d="M270.5,254.9c8.9-5.7,19.1-9,29.7-9.4c0.2,0,0.4,0,0.6,0c20.2-1.1,36.8-17,38.9-37
						c0,0,0-2,0-4.3H178.4c0,33.2,26.9,60,60,60C250.3,264.2,261.3,260.7,270.5,254.9z"/>
					<path id="XMLID_71_" class="st4" d="M238.5,266.2c-34.2,0-62.1-27.8-62.1-62.1c0-0.5,0.2-1,0.6-1.4c0.4-0.4,0.9-0.6,1.4-0.6
						h161.2c1.1,0,2,0.9,2,2v4.3c0,0.1,0,0.1,0,0.2c-2.1,21-19.7,37.7-40.8,38.9c-0.2,0-0.4,0-0.6,0c-10,0.4-19.9,3.6-28.7,9.1l0,0
						C261.7,262.9,250.3,266.2,238.5,266.2z M180.5,206.1c1.1,31.1,26.7,56,58,56c11,0,21.7-3.1,31-9l0,0c9.4-5.9,20-9.3,30.7-9.7
						c0.2,0,0.4,0,0.6,0c19.1-1,35-16.1,37-35.1v-2.1H180.5z"/>
				</g>
			</g>
			<g id="XMLID_67_" class="st10">
				<path id="XMLID_17_" class="st4" d="M293.7,246.1c0,0-94.1,17.4-109.9-42h-5.4c0,0-2.7,36.7,36.4,55.2S273,246.7,293.7,246.1z"
					/>
			</g>
			<g id="XMLID_65_" class="st11">
				
					<ellipse id="XMLID_16_" transform="matrix(0.7449 0.6672 -0.6672 0.7449 231.1168 -159.2102)" class="st12" cx="323.8" cy="222.6" rx="3.9" ry="8.1"/>
			</g>
			<g id="XMLID_63_" class="st11">
				
					<ellipse id="XMLID_15_" transform="matrix(-0.866 0.5 -0.5 -0.866 530.5035 245.6149)" class="st12" cx="232.3" cy="193.9" rx="3.8" ry="2.1"/>
			</g>
			<g id="XMLID_58_">
				<path id="XMLID_14_" class="st3" d="M339.7,204.1c0,0,20.3-4.4,40,8.5c0,0-1.8,9.1-10.6,11.6c0,0-5.8-9.7-29.4-15.8V204.1z"/>
				<path id="XMLID_59_" class="st4" d="M369.1,226.2c-0.7,0-1.4-0.4-1.7-1c0-0.1-5.9-9.1-28.2-14.9c-0.9-0.2-1.5-1-1.5-2v-4.3
					c0-0.9,0.7-1.8,1.6-2c0.9-0.2,21.4-4.4,41.5,8.7c0.7,0.4,1,1.3,0.9,2.1c-0.1,0.4-2.1,10.3-12,13.2
					C369.4,226.2,369.3,226.2,369.1,226.2z M341.7,206.8c18.1,4.9,25.6,12,28.1,15c4.8-1.9,6.8-6.2,7.5-8.3
					c-15.3-9.4-30.7-8.3-35.6-7.6V206.8z"/>
			</g>
		</g>
	</g>
</g>
<g id="XMLID_53_">
	<path id="XMLID_11_" class="st13" d="M526,155.9H394.8c-2,0-3.5-1.6-3.5-3.5l0,0c0-2,1.6-3.5,3.5-3.5H526c2,0,3.5,1.6,3.5,3.5l0,0
		C529.6,154.3,528,155.9,526,155.9z"/>
</g>
<g id="XMLID_51_">
	<path id="XMLID_10_" class="st13" d="M511.6,170.6H380.4c-2,0-3.5-1.6-3.5-3.5l0,0c0-2,1.6-3.5,3.5-3.5h131.2c2,0,3.5,1.6,3.5,3.5
		l0,0C515.1,169,513.5,170.6,511.6,170.6z"/>
</g>
<g id="XMLID_49_">
	<path id="XMLID_9_" class="st13" d="M271.6,110.5H140.4c-2,0-3.5-1.6-3.5-3.5l0,0c0-2,1.6-3.5,3.5-3.5h131.2c2,0,3.5,1.6,3.5,3.5
		l0,0C275.1,108.9,273.5,110.5,271.6,110.5z"/>
</g>
<g id="XMLID_47_">
	<path id="XMLID_8_" class="st13" d="M254.6,122.4H123.4c-2,0-3.5-1.6-3.5-3.5l0,0c0-2,1.6-3.5,3.5-3.5h131.2c2,0,3.5,1.6,3.5,3.5
		l0,0C258.1,120.8,256.6,122.4,254.6,122.4z"/>
</g>
<g id="XMLID_45_">
	<path id="XMLID_7_" class="st13" d="M405.3,143.7H274.1c-2,0-3.5-1.6-3.5-3.5l0,0c0-2,1.6-3.5,3.5-3.5h131.2c2,0,3.5,1.6,3.5,3.5
		l0,0C408.8,142.1,407.2,143.7,405.3,143.7z"/>
</g>
<g id="XMLID_43_">
	<path id="XMLID_6_" class="st13" d="M297.9,179.7H166.7c-2,0-3.5-1.6-3.5-3.5l0,0c0-2,1.6-3.5,3.5-3.5h131.2c2,0,3.5,1.6,3.5,3.5
		l0,0C301.5,178.1,299.9,179.7,297.9,179.7z"/>
</g>
<g id="XMLID_41_">
	<path id="XMLID_5_" class="st13" d="M171.8,122.4H40.6c-2,0-3.5-1.6-3.5-3.5l0,0c0-2,1.6-3.5,3.5-3.5h131.2c2,0,3.5,1.6,3.5,3.5
		l0,0C175.3,120.8,173.7,122.4,171.8,122.4z"/>
</g>
<g id="XMLID_39_">
	<path id="XMLID_4_" class="st13" d="M184.1,134.2H52.9c-2,0-3.5-1.6-3.5-3.5l0,0c0-2,1.6-3.5,3.5-3.5h131.2c2,0,3.5,1.6,3.5,3.5
		l0,0C187.7,132.6,186.1,134.2,184.1,134.2z"/>
</g>
<g id="XMLID_37_">
	<path id="XMLID_3_" class="st13" d="M486.1,195.8H354.9c-2,0-3.5-1.6-3.5-3.5l0,0c0-2,1.6-3.5,3.5-3.5h131.2c2,0,3.5,1.6,3.5,3.5
		l0,0C489.6,194.2,488,195.8,486.1,195.8z"/>
</g>
<g id="XMLID_35_">
	<path id="XMLID_2_" class="st13" d="M359.5,159.5h-16.3c-2,0-3.5-1.6-3.5-3.5l0,0c0-2,1.6-3.5,3.5-3.5h16.3c2,0,3.5,1.6,3.5,3.5
		l0,0C363,157.9,361.4,159.5,359.5,159.5z"/>
</g>
<g id="XMLID_1_">
</g>
<g id="XMLID_32_">
</g>
<g id="XMLID_33_">
</g>
<g id="XMLID_34_">
</g>
<g id="XMLID_36_">
</g>
<g id="XMLID_38_">
</g>
</svg>
