<?xml version="1.0" encoding="utf-8"?>
<!-- Generator: Adobe Illustrator 19.0.0, SVG Export Plug-In . SVG Version: 6.00 Build 0)  -->
<svg version="1.1" id="Layer_1" xmlns="http://www.w3.org/2000/svg" xmlns:xlink="http://www.w3.org/1999/xlink" x="0px" y="0px"
	 viewBox="0 0 600 400" style="enable-background:new 0 0 600 400;" xml:space="preserve">
<style type="text/css">
	.st0{fill:#E1E99E;}
	.st1{fill:#8E6338;}
	.st2{fill:#3B2E23;}
	.st3{opacity:0.15;}
	.st4{fill:#20140F;}
	.st5{fill:#549B44;}
	.st6{opacity:0.2;}
	.st7{fill:#6CBE45;}
	.st8{fill:#B2D890;}
	.st9{fill:#FBE45D;}
	.st10{fill:#966A43;}
	.st11{opacity:0.3;}
	.st12{fill:#FFFFFF;}
	.st13{fill:#F8F7EC;}
</style>
<g>
	<g>
		<circle class="st0" cx="326" cy="193" r="127.8"/>
	</g>
	<g>
		<g>
			<path class="st1" d="M432.3,169.3c0,0,6.7-20.2,30.1-25.5c0,0,11.3,3.3,11.8,16c0,0-22.4,2.3-34.8,16.6l-11.8,13.7l-10.2-9.3
				L432.3,169.3z"/>
			<path class="st2" d="M427.6,192.5c-0.6,0-1.2-0.2-1.6-0.6l-10.2-9.3c-0.5-0.5-0.8-1.1-0.8-1.8c0-0.7,0.4-1.4,0.9-1.8l14.4-11.1
				c1.5-3.8,9.4-21.3,31.5-26.4c0.4-0.1,0.8-0.1,1.2,0c4.5,1.3,13,6.7,13.6,18.2c0.1,1.3-0.9,2.3-2.1,2.5c-0.2,0-21.7,2.4-33.3,15.8
				l-11.8,13.7c-0.4,0.5-1,0.8-1.7,0.8C427.7,192.5,427.7,192.5,427.6,192.5z M421.1,180.9l6.3,5.8l10.2-11.9
				c10.6-12.3,27.8-16.1,34-17.1c-1.3-7.8-7.5-10.8-9.4-11.5c-21.3,5.2-27.6,23.6-27.7,23.8c-0.1,0.4-0.4,0.8-0.8,1.1L421.1,180.9z"
				/>
		</g>
		<g class="st3">
			<ellipse class="st4" cx="333.9" cy="325.5" rx="133.8" ry="8.7"/>
		</g>
		<g>
			<g>
				<path class="st5" d="M420.6,272.4c2.7-12.1,8.4-23.3,16.8-32.5c0.2-0.2,0.3-0.3,0.5-0.5c15.9-17.7,16.4-44.7,1.5-63
					c-2,1.8-5,1.7-6.9-0.2c-1.9-1.9-1.9-4.9-0.2-6.9c-19.1-15.5-47.2-14.4-65,3.4c-0.4,0.4-0.7,0.7-1,1.1c-7,7.4-16.3,12-26.3,13.6
					c-15.2,2.6-29.8,10.2-41,22.8c-23.7,26.8-23.4,67.7,0.7,94.1c27.3,29.9,73.7,30.7,102,2.4C411.5,296.9,417.8,284.9,420.6,272.4z
					"/>
				<path class="st2" d="M351.9,329.7c-0.6,0-1.2,0-1.7,0c-20.1-0.5-38.6-8.9-52.2-23.8c-12.1-13.2-18.8-30.4-18.9-48.5
					c-0.1-18.1,6.3-35.4,18.2-48.8c11.2-12.6,25.9-20.8,42.4-23.6c9.9-1.7,18.6-6.2,25-12.9c0.4-0.4,0.7-0.7,1.1-1.1
					c18.5-18.5,47.8-20,68.1-3.5c0.5,0.4,0.8,1,0.9,1.7c0.1,0.6-0.2,1.3-0.6,1.8c-0.9,1.1-0.9,2.7,0.1,3.7c1,1,2.6,1,3.7,0.1
					c0.5-0.4,1.1-0.7,1.8-0.6c0.6,0,1.2,0.4,1.7,0.9c15.7,19.2,15,47.6-1.6,66.1l-0.5,0.5c-8,8.6-13.6,19.5-16.3,31.4
					c-3,13.4-9.8,25.7-19.5,35.5C389.6,322.2,371.4,329.7,351.9,329.7z M401.7,160.7c-11.9,0-23.7,4.6-32.7,13.6
					c-0.3,0.3-0.7,0.7-1,1c-7.1,7.5-16.6,12.5-27.6,14.4c-15.5,2.6-29.2,10.2-39.6,22c-22.7,25.7-22.5,65.6,0.7,90.9
					c12.7,13.9,30,21.8,48.8,22.3c18.8,0.4,36.5-6.6,49.7-19.9c9.1-9.1,15.5-20.6,18.3-33.2l0,0c2.9-12.7,8.9-24.3,17.4-33.6
					l0.4-0.5c14.6-16.2,15.6-40.9,2.7-58.3c-2.7,1.1-5.9,0.5-8-1.6c-2.2-2.2-2.7-5.3-1.6-8C421,163.7,411.3,160.7,401.7,160.7z"/>
			</g>
		</g>
		<g class="st6">
			<g>
				<path class="st2" d="M390.7,255c0-13.8-4-26.8-10.9-37.6c-6.6-10.5-10.6-22.4-11.1-34.9c0-0.2,0-0.5,0-0.7
					c-0.2-3.1-0.6-6.2-1.4-9.1c-0.3,0.3-0.7,0.7-1,1.1c-7,7.4-16.3,12-26.3,13.6c-15.2,2.6-29.8,10.2-41,22.8
					c-23.7,26.8-23.4,67.7,0.7,94.1c9.1,10,20.3,16.7,32.3,20.2C365.4,318.9,390.7,289.9,390.7,255z"/>
			</g>
		</g>
		<g>
			<path class="st5" d="M366,217.3c-6.6-10.5-10.6-22.4-11.1-34.9c0-0.2,0-0.5,0-0.7c-1.3-23.7-20-43.2-43.5-45.6l-27.9,0
				c-24.5,2.5-25.7,23.2-25.7,48.3c0,0.5,0,1,0,1.5c0.3,10.1-3.1,20-8.9,28.2c-9,12.6-13.9,28.3-12.9,45.1
				c1.8,29.5,22,54.2,49.2,62.9v3.2h17.9c40.4,1.9,73.8-30.4,73.8-70.4C376.9,241.1,372.9,228.2,366,217.3z"/>
			<path class="st2" d="M306.5,327.8c-1.1,0-2.3,0-3.4-0.1h-17.8c-1.3,0-2.4-1.1-2.4-2.4v-1.5c-27.7-9.5-47.4-35.2-49.2-64.4
				c-1-16.8,3.6-33,13.3-46.6c5.8-8.2,8.8-17.5,8.5-26.8c0-0.5,0-1,0-1.6c0-22.4,0-47.8,27.8-50.7c0.1,0,0.2,0,0.2,0l27.9,0
				c0.1,0,0.2,0,0.2,0c24.7,2.5,44.3,23.1,45.6,47.8c0,0.2,0,0.5,0,0.7c0.5,11.7,4.2,23.4,10.7,33.7l0,0
				c7.4,11.6,11.3,25.1,11.3,38.9c0,20.1-8,38.8-22.5,52.7C343,320.7,325.3,327.8,306.5,327.8z M287.6,323h15.5c0,0,0.1,0,0.1,0
				c18.8,0.9,36.7-5.8,50.3-18.8c13.6-13,21.1-30.5,21.1-49.3c0-12.9-3.6-25.5-10.5-36.4l0,0c-7-11-10.9-23.5-11.4-36
				c0-0.2,0-0.4,0-0.7c-1.2-22.4-18.9-41-41.2-43.4l-27.6,0c-21.8,2.3-23.5,19.7-23.5,45.9c0,0.5,0,0.9,0,1.4
				c0.3,10.3-2.9,20.6-9.4,29.7c-9.1,12.8-13.4,27.9-12.4,43.6c1.7,27.8,20.8,52.3,47.5,60.7c1,0.3,1.7,1.2,1.7,2.3V323z"/>
		</g>
		<g>
			<g>
				<path class="st7" d="M348.1,217.3c-6.6-10.5-10.6-22.4-11.1-34.9c0-0.2,0-0.5,0-0.7c-1.3-23.7-20-43.2-43.5-45.6
					c-0.1,2.7-2.3,4.8-5,4.8c-2.7,0-4.9-2.1-5-4.8c-24.5,2.5-43.6,23.2-43.6,48.3c0,0.5,0,1,0,1.5c0.3,10.1-3.1,20-8.9,28.2
					c-9,12.6-13.9,28.3-12.9,45.1c2.1,35.7,31.3,64.4,67,66.1C325.7,327.2,359,295,359,255C359,241.1,355,228.2,348.1,217.3z"/>
				<path class="st2" d="M288.6,327.8c-1.2,0-2.3,0-3.5-0.1c-17.9-0.8-34.8-8.3-47.7-20.9c-12.9-12.7-20.6-29.5-21.6-47.4
					c-1-16.8,3.6-33,13.3-46.6c5.8-8.2,8.8-17.5,8.5-26.8c0-0.5,0-1,0-1.6c0-26.2,19.6-48,45.7-50.7c0.6-0.1,1.3,0.1,1.8,0.6
					c0.5,0.4,0.8,1,0.8,1.7c0.1,1.4,1.2,2.5,2.6,2.5c1.4,0,2.6-1.1,2.6-2.5c0-0.6,0.3-1.3,0.8-1.7c0.5-0.4,1.1-0.6,1.8-0.6
					c24.7,2.5,44.3,23.1,45.6,47.8l0,0.7c0.5,11.7,4.2,23.4,10.7,33.7l0,0c7.4,11.6,11.3,25.1,11.3,38.9c0,20.1-8,38.8-22.5,52.7
					C325.2,320.7,307.4,327.8,288.6,327.8z M281.7,138.8c-22.6,3.3-39.4,22.6-39.4,45.7c0,0.5,0,0.9,0,1.4
					c0.3,10.3-2.9,20.6-9.4,29.7c-9.1,12.8-13.4,27.9-12.4,43.6c2.1,34.2,30.5,62.3,64.8,63.8c18.8,0.9,36.7-5.8,50.3-18.8
					c13.6-13,21.1-30.5,21.1-49.3c0-12.9-3.6-25.5-10.5-36.4l0,0c-7-11-10.9-23.5-11.4-36l0-0.7c-1.2-21.8-17.9-40-39.3-43.1
					c-1.1,2.7-3.8,4.5-6.8,4.5C285.5,143.3,282.9,141.5,281.7,138.8z"/>
			</g>
		</g>
		<g>
			<path class="st8" d="M329,181c0-0.2,0-0.3,0-0.5c-1.8-19.7-17.8-35.4-37.6-36.8c-23.7-1.6-43.4,17.1-43.4,40.5c0,0.6,0,1.2,0,1.8
				c0.5,11.4-2.7,22.6-9.5,31.7c-8.4,11.3-13.1,25.5-12.3,40.9c1.7,31.9,27.9,57.7,59.9,58.9c35.7,1.4,65-27.1,65-62.4
				c0-11.7-3.2-22.7-8.8-32C334.6,210.2,330.1,195.8,329,181z"/>
		</g>
		<g>
			<path class="st9" d="M309.5,186.4c0.1-1,0.1-2,0.1-3c-0.4-13.2-11-24.1-24.1-24.9c-15-0.9-27.4,10.9-27.4,25.7c0,0.5,0,0.9,0,1.4
				c0.8,14.9-3.3,29.5-12.2,41.4c-6.1,8.3-9.6,18.7-9.2,29.8c0.9,23.8,19.9,43.4,43.7,45.1c27.5,1.9,50.5-19.9,50.5-47
				c0-10.3-3.3-19.9-8.9-27.6C313.3,215.4,308.3,201,309.5,186.4z"/>
		</g>
		<g>
			<path class="st1" d="M315.8,254.4c0,19-15.4,34.4-34.4,34.4c-19,0-34.4-15.4-34.4-34.4c0-13.1,16.4-28,26.5-36
				c4.6-3.6,11.1-3.6,15.7,0C299.4,226.4,315.8,241.3,315.8,254.4z"/>
			<path class="st2" d="M281.4,291.1c-20.3,0-36.7-16.5-36.7-36.7c0-13.5,14.9-28,27.4-37.9c5.5-4.3,13.1-4.3,18.6,0
				c12.5,9.8,27.4,24.4,27.4,37.9C318.2,274.6,301.7,291.1,281.4,291.1z M281.4,218c-2.2,0-4.5,0.7-6.4,2.2
				c-9.6,7.5-25.6,22-25.6,34.1c0,17.6,14.4,32,32,32c17.6,0,32-14.3,32-32c0-8.9-9.3-21.3-25.6-34.1
				C285.9,218.8,283.7,218,281.4,218z"/>
		</g>
		<g>
			<path class="st10" d="M309.7,254c0,15.6-12.6,28.2-28.2,28.2s-28.2-12.6-28.2-28.2c0-10.8,13.5-23,21.8-29.6c3.8-3,9.1-3,12.9,0
				C296.2,231,309.7,243.2,309.7,254z"/>
		</g>
		<g class="st6">
			<path class="st2" d="M344.1,298.4c0,0,24.2-13.2,32.4-35.5c0,0-5.6,60.3-72.3,62.5C304.1,325.4,335.4,312.7,344.1,298.4z"/>
		</g>
		<g class="st11">
			
				<ellipse transform="matrix(0.7465 0.6654 -0.6654 0.7465 225.644 -120.6579)" class="st12" cx="271.2" cy="235.8" rx="3.7" ry="5.8"/>
		</g>
		<g class="st11">
			<ellipse class="st12" cx="432.8" cy="207.6" rx="9.2" ry="14.6"/>
		</g>
	</g>
</g>
<g>
	<path class="st13" d="M330.2,78.5h-154c-2.3,0-4.1-1.9-4.1-4.1l0,0c0-2.3,1.9-4.1,4.1-4.1h154c2.3,0,4.1,1.9,4.1,4.1l0,0
		C334.4,76.7,332.5,78.5,330.2,78.5z"/>
</g>
<g>
	<path class="st13" d="M249.1,106.4H95c-2.3,0-4.1-1.9-4.1-4.1l0,0c0-2.3,1.9-4.1,4.1-4.1h154c2.3,0,4.1,1.9,4.1,4.1l0,0
		C253.2,104.5,251.3,106.4,249.1,106.4z"/>
</g>
<g>
	<path class="st13" d="M544.7,136.2h-154c-2.3,0-4.1-1.9-4.1-4.1l0,0c0-2.3,1.9-4.1,4.1-4.1h154c2.3,0,4.1,1.9,4.1,4.1l0,0
		C548.9,134.3,547,136.2,544.7,136.2z"/>
</g>
<g>
	<path class="st13" d="M360.8,127.9h-154c-2.3,0-4.1-1.9-4.1-4.1l0,0c0-2.3,1.9-4.1,4.1-4.1h154c2.3,0,4.1,1.9,4.1,4.1l0,0
		C365,126,363.1,127.9,360.8,127.9z"/>
</g>
<g>
	<path class="st13" d="M225.1,194.3H71c-2.3,0-4.1-1.9-4.1-4.1l0,0c0-2.3,1.9-4.1,4.1-4.1h154c2.3,0,4.1,1.9,4.1,4.1l0,0
		C229.2,192.4,227.4,194.3,225.1,194.3z"/>
</g>
<g>
	<path class="st13" d="M210.8,182.2h-154c-2.3,0-4.1-1.9-4.1-4.1l0,0c0-2.3,1.9-4.1,4.1-4.1h154c2.3,0,4.1,1.9,4.1,4.1l0,0
		C215,180.4,213.1,182.2,210.8,182.2z"/>
</g>
<g>
	<path class="st13" d="M444.9,102.2h-55.1c-2.3,0-4.1-1.9-4.1-4.1l0,0c0-2.3,1.9-4.1,4.1-4.1h55.1c2.3,0,4.1,1.9,4.1,4.1l0,0
		C449.1,100.4,447.2,102.2,444.9,102.2z"/>
</g>
</svg>
