<?xml version="1.0" encoding="utf-8"?>
<!-- Generator: Adobe Illustrator 19.0.0, SVG Export Plug-In . SVG Version: 6.00 Build 0)  -->
<svg version="1.1" id="Layer_1" xmlns="http://www.w3.org/2000/svg" xmlns:xlink="http://www.w3.org/1999/xlink" x="0px" y="0px"
	 viewBox="0 0 120 60" style="enable-background:new 0 0 120 60;" xml:space="preserve">
<style type="text/css">
	.st0{fill:#9CCC4E;}
	.st1{fill:#B1742A;}
	.st2{fill:#FFFFFF;}
	.st3{fill:#333333;}
</style>
<g id="XMLID_11_">
	<path id="XMLID_22_" class="st0" d="M34.9,25.7c2.3,4.4,3.6,9.3,3.6,13.4c0,9.6-7.8,17.3-17.3,17.3S3.9,48.7,3.9,39.1
		c0-4,1.4-9,3.6-13.4c1.4-2.7,2.6-5.4,3.6-8.2c1.8-5.2,5.7-10.3,10.1-10.3c4.4,0,8.3,5.1,10.1,10.3C32.3,20.3,33.5,23.1,34.9,25.7z
		 M29.3,39.8c0-4.5-3.6-11.6-8.1-11.6s-8.1,7.2-8.1,11.6s3.6,8.1,8.1,8.1S29.3,44.3,29.3,39.8z"/>
	<path id="XMLID_7_" class="st1" d="M21.2,28.2c4.5,0,8.1,7.2,8.1,11.6s-3.6,8.1-8.1,8.1s-8.1-3.6-8.1-8.1S16.7,28.2,21.2,28.2z"/>
	<path id="XMLID_6_" class="st2" d="M26.1,42.8c-0.1,0-0.2,0-0.4-0.1c-0.5-0.2-0.7-0.7-0.5-1.2c0.2-0.5,0.3-1.1,0.3-1.7
		c0-1.5-0.7-3.8-1.8-5.5c-0.3-0.5-0.6-0.9-1-1.3c-0.3-0.4-0.3-1,0.1-1.3c0.4-0.3,1-0.3,1.3,0.1c0.4,0.5,0.8,1,1.2,1.6
		c1.3,2,2.1,4.6,2.1,6.5c0,0.8-0.2,1.6-0.5,2.4C26.8,42.6,26.4,42.8,26.1,42.8z"/>
	<g id="XMLID_13_">
		<path id="XMLID_17_" class="st3" d="M21.2,27.2c-2.4,0-4.7,1.6-6.5,4.6c-1.6,2.5-2.5,5.6-2.5,8c0,5,4.1,9,9,9s9-4.1,9-9
			c0-2.4-1-5.5-2.5-8C25.9,28.9,23.6,27.2,21.2,27.2z M21.2,47c-4,0-7.2-3.2-7.2-7.2c0-4,3.4-10.7,7.2-10.7c3.8,0,7.2,6.7,7.2,10.7
			C28.4,43.8,25.2,47,21.2,47z"/>
		<path id="XMLID_14_" class="st3" d="M35.7,25.3c-1.4-2.6-2.6-5.4-3.5-8.1c-1.8-5.1-5.5-10.2-10-10.8v-3c0-0.5-0.4-0.9-0.9-0.9
			s-0.9,0.4-0.9,0.9v3c-4.5,0.6-8.3,5.8-10,10.8c-1,2.7-2.1,5.5-3.5,8.1C4.4,29.8,3,35,3,39.1c0,10.1,8.2,18.2,18.2,18.2
			s18.2-8.2,18.2-18.2C39.5,35,38.1,29.8,35.7,25.3z M21.2,55.5c-9,0-16.4-7.3-16.4-16.4c0-3.8,1.3-8.7,3.5-12.9
			c1.4-2.7,2.6-5.5,3.6-8.4c1.6-4.7,5.2-9.7,9.2-9.7c4,0,7.6,5,9.2,9.7c1,2.8,2.2,5.6,3.6,8.4c2.2,4.3,3.5,9.1,3.5,12.9
			C37.6,48.1,30.3,55.5,21.2,55.5z"/>
	</g>
	<circle id="XMLID_1_" class="st2" cx="21.2" cy="31" r="0.9"/>
</g>
<g id="XMLID_40_">
	<path id="XMLID_41_" class="st3" d="M48.4,19h-2.8v-2h8.1v2h-2.9v8.6h-2.4V19z"/>
	<path id="XMLID_43_" class="st3" d="M57.4,17V21h3.9V17h2.4v10.6h-2.4v-4.4h-3.9v4.4H55V17H57.4z"/>
	<path id="XMLID_45_" class="st3" d="M72.1,23.1h-3.9v2.5h4.3v2h-6.8V17h6.5v2h-4.1v2.2h3.9V23.1z"/>
</g>
<g id="XMLID_19_">
	<path id="XMLID_20_" class="st3" d="M49.1,42.3L48.4,45h-2.5l3.2-10.6h3.1L55.6,45H53l-0.8-2.7H49.1z M51.8,40.5l-0.7-2.2
		c-0.2-0.6-0.4-1.4-0.5-2h0c-0.2,0.6-0.3,1.4-0.5,2l-0.6,2.2H51.8z"/>
	<path id="XMLID_24_" class="st3" d="M58.5,45l-3.4-10.6h2.6l1.3,4.5c0.4,1.3,0.7,2.5,0.9,3.8h0c0.3-1.3,0.6-2.5,1-3.7l1.4-4.5h2.5
		L61.3,45H58.5z"/>
	<path id="XMLID_26_" class="st3" d="M75.6,39.6c0,3.5-2.1,5.6-5.2,5.6c-3.1,0-5-2.4-5-5.4c0-3.2,2-5.5,5.1-5.5
		C73.8,34.2,75.6,36.7,75.6,39.6z M67.9,39.7c0,2.1,1,3.5,2.6,3.5c1.6,0,2.5-1.5,2.5-3.6c0-1.9-0.9-3.5-2.6-3.5
		C68.9,36.1,67.9,37.7,67.9,39.7z"/>
	<path id="XMLID_29_" class="st3" d="M84.9,44.7c-0.4,0.2-1.4,0.5-2.7,0.5c-3.7,0-5.5-2.3-5.5-5.3c0-3.6,2.6-5.6,5.8-5.6
		c1.2,0,2.2,0.3,2.6,0.5l-0.5,1.9c-0.5-0.2-1.2-0.4-2-0.4c-1.9,0-3.4,1.1-3.4,3.5c0,2.1,1.3,3.5,3.4,3.5c0.7,0,1.5-0.2,2-0.3
		L84.9,44.7z"/>
	<path id="XMLID_31_" class="st3" d="M89.1,42.3L88.4,45h-2.5l3.2-10.6h3.1L95.5,45H93l-0.8-2.7H89.1z M91.8,40.5l-0.7-2.2
		c-0.2-0.6-0.4-1.4-0.5-2h0c-0.2,0.6-0.3,1.4-0.5,2l-0.6,2.2H91.8z"/>
	<path id="XMLID_34_" class="st3" d="M97,34.5c0.9-0.1,2-0.2,3.2-0.2c2,0,3.3,0.4,4.3,1.1c1.1,0.8,1.8,2.1,1.8,4
		c0,2-0.7,3.4-1.8,4.3c-1.1,0.9-2.8,1.4-4.9,1.4c-1.2,0-2.1-0.1-2.7-0.2V34.5z M99.4,43.2c0.2,0,0.5,0,0.8,0c2.2,0,3.6-1.2,3.6-3.7
		c0-2.2-1.3-3.4-3.3-3.4c-0.5,0-0.9,0-1.1,0.1V43.2z"/>
	<path id="XMLID_37_" class="st3" d="M117.6,39.6c0,3.5-2.1,5.6-5.2,5.6c-3.1,0-5-2.4-5-5.4c0-3.2,2-5.5,5.1-5.5
		C115.8,34.2,117.6,36.7,117.6,39.6z M109.9,39.7c0,2.1,1,3.5,2.6,3.5c1.6,0,2.5-1.5,2.5-3.6c0-1.9-0.9-3.5-2.6-3.5
		C110.9,36.1,109.9,37.7,109.9,39.7z"/>
</g>
</svg>
